<svg xmlns="http://www.w3.org/2000/svg" viewBox="0 0 180 180">
  <defs>
    <linearGradient id="bg" x1="0" y1="0" x2="1" y2="1">
      <stop offset="0%"   stop-color="hsl(221, 83%, 53%)"/>
      <stop offset="100%" stop-color="hsl(221, 83%, 70%)"/>
    </linearGradient>
  </defs>
  <!-- iOS-style rounded background (~22% corner radius) -->
  <rect width="180" height="180" rx="40" fill="url(#bg)"/>
  <!-- BrainCircuit paths scaled to ~90px centered (24 viewBox units × 3.75 = 90) -->
  <g
    transform="translate(45 45) scale(3.75)"
    fill="none"
    stroke="white"
    stroke-width="1.6"
    stroke-linecap="round"
    stroke-linejoin="round"
  >
    <path d="M12 5a3 3 0 1 0-5.997.125 4 4 0 0 0-2.526 5.77 4 4 0 0 0 .556 6.588A4 4 0 1 0 12 18Z"/>
    <path d="M9 13a4.5 4.5 0 0 0 3-4"/>
    <path d="M6.003 5.125A3 3 0 0 0 6.401 6.5"/>
    <path d="M3.477 10.896a4 4 0 0 1 .585-.396"/>
    <path d="M6 18a4 4 0 0 1-1.967-.516"/>
    <path d="M12 13h4"/>
    <path d="M12 18h6a2 2 0 0 1 2 2v1"/>
    <path d="M12 8h8"/>
    <path d="M16 8V5a2 2 0 0 1 2-2"/>
    <circle cx="16" cy="13" r=".6" fill="white"/>
    <circle cx="18" cy="3"  r=".6" fill="white"/>
    <circle cx="20" cy="21" r=".6" fill="white"/>
    <circle cx="20" cy="8"  r=".6" fill="white"/>
  </g>
</svg>
